<?xml version="1.0" standalone="no"?>
<!DOCTYPE svg PUBLIC "-//W3C//DTD SVG 20010904//EN"
"http://www.w3.org/TR/2001/REC-SVG-20010904/DTD/svg10.dtd">
<svg version="1.0" xmlns="http://www.w3.org/2000/svg"
     width="235.000000pt" height="57.000000pt" viewBox="0 0 235.000000 57.000000"
     preserveAspectRatio="xMidYMid meet">
    
    <g transform="translate(0.000000,57.000000) scale(0.100000,-0.100000)"
       fill="#000000" stroke="none">
        <path d="M283 473 c-7 -2 -13 -16 -13 -29 0 -20 -5 -24 -29 -24 -42 0 -63 -25
                 -59 -69 l3 -36 163 -3 162 -2 0 39 c0 45 -20 71 -56 71 -16 0 -24 6 -24 18 0
                 10 -5 23 -12 30 -12 12 -110 16 -135 5z m117 -38 c0 -12 -13 -15 -55 -15 -42
                 0 -55 3 -55 15 0 12 13 15 55 15 42 0 55 -3 55 -15z"/>
        <path d="M720 336 c0 -59 -4 -87 -14 -95 -18 -15 -46 -3 -46 20 0 12 -7 19
                 -20 19 -14 0 -20 -7 -20 -23 0 -33 30 -57 72 -57 57 0 68 22 68 128 0 85 -1
                 92 -20 92 -18 0 -20 -7 -20 -84z"/>
        <path d="M990 310 c0 -103 1 -110 20 -110 11 0 20 5 20 12 0 9 3 9 12 0 20
                 -20 65 -14 82 10 18 26 21 80 5 109 -15 30 -50 40 -76 23 -22 -14 -23 -14 -23
                 26 0 33 -3 40 -20 40 -19 0 -20 -7 -20 -110z m103 -1 c13 -20 1 -68 -18 -76
                 -24 -8 -45 16 -45 52 0 17 3 35 7 39 12 11 45 2 56 -15z"/>
        <path d="M840 357 c-53 -27 -63 -110 -17 -142 56 -39 127 -1 127 68 0 35 -27
                 77 -49 77 -5 0 -15 2 -23 5 -7 3 -24 -1 -38 -8z m63 -48 c13 -20 1 -68 -18
                 -76 -24 -8 -45 16 -45 52 0 17 3 35 7 39 12 11 45 2 56 -15z"/>
        <path d="M180 242 c0 -26 5 -53 12 -60 17 -17 289 -17 306 0 7 7 12 34 12 60
                 l0 48 -59 0 c-50 0 -59 -3 -64 -20 -4 -15 -14 -20 -42 -20 -28 0 -38 5 -42 20
                 -5 17 -14 20 -64 20 l-59 0 0 -48z"/>
    </g>
</svg>